<svg width="22" height="30" viewBox="0 0 22 30" fill="none" xmlns="http://www.w3.org/2000/svg">
<path fill-rule="evenodd" clip-rule="evenodd" d="M5.42514 20.1037C5.42514 17.0535 7.9067 14.5718 10.957 14.5718C14.0074 14.5718 16.4889 17.0535 16.4889 20.1037C16.4889 23.1539 14.0073 25.6356 10.957 25.6356C7.90676 25.6356 5.42514 23.154 5.42514 20.1037ZM7.12248 20.7647L9.85963 23.5019L14.7915 18.57L13.5486 17.327L9.85963 21.016L8.36543 19.5218L7.12248 20.7647Z" fill="#58BEBF"/>
<path d="M16.5768 3.42322H14.3803C14.3803 1.53264 12.8476 0 10.957 0C9.06645 0 7.53381 1.53264 7.53381 3.42322H5.33725V7.81148H16.5768V3.42322H16.5768Z" fill="#58BEBF"/>
<path fill-rule="evenodd" clip-rule="evenodd" d="M18.3346 9.56929V3.42322H21.8736V30H0.0404358V3.42322H3.57944V9.56929H18.3346ZM3.66733 20.1037C3.66733 24.1233 6.93745 27.3935 10.957 27.3935C14.9766 27.3935 18.2467 24.1233 18.2467 20.1037C18.2467 16.0843 14.9766 12.8141 10.957 12.8141C6.93751 12.8141 3.66733 16.0842 3.66733 20.1037Z" fill="#58BEBF"/>
</svg>
