<svg width="168" height="44" viewBox="0 0 168 44" fill="none" xmlns="http://www.w3.org/2000/svg">
<path d="M56.168 13.8641C58.328 13.8641 60.112 14.4321 61.52 15.5681C62.944 16.7041 63.864 18.2401 64.28 20.1761H59.936C59.616 19.3921 59.12 18.7761 58.448 18.3281C57.792 17.8801 57.008 17.6561 56.096 17.6561C54.896 17.6561 53.928 18.0961 53.192 18.9761C52.456 19.8561 52.088 21.0321 52.088 22.5041C52.088 23.9761 52.456 25.1521 53.192 26.0321C53.928 26.8961 54.896 27.3281 56.096 27.3281C57.008 27.3281 57.792 27.1041 58.448 26.6561C59.12 26.2081 59.616 25.6001 59.936 24.8321H64.28C63.864 26.7521 62.944 28.2881 61.52 29.4401C60.112 30.5761 58.328 31.1441 56.168 31.1441C54.52 31.1441 53.072 30.7841 51.824 30.0641C50.576 29.3281 49.608 28.3041 48.92 26.9921C48.248 25.6801 47.912 24.1841 47.912 22.5041C47.912 20.8241 48.248 19.3281 48.92 18.0161C49.608 16.7041 50.576 15.6881 51.824 14.9681C53.072 14.2321 54.52 13.8641 56.168 13.8641Z" fill="#323232"/>
<path d="M79.9 17.6081V31.0001H75.7721V28.5761C75.3881 29.3601 74.8121 29.9841 74.0441 30.4481C73.2921 30.9121 72.412 31.1441 71.404 31.1441C69.868 31.1441 68.644 30.6321 67.732 29.6081C66.836 28.5841 66.3881 27.1761 66.3881 25.3841V17.6081H70.4681V24.8801C70.4681 25.7921 70.7 26.5041 71.164 27.0161C71.644 27.5121 72.284 27.7601 73.084 27.7601C73.916 27.7601 74.572 27.4961 75.052 26.9681C75.532 26.4401 75.7721 25.6881 75.7721 24.7121V17.6081H79.9Z" fill="#323232"/>
<path d="M90.3125 27.4721V31.0001H88.4645C86.8965 31.0001 85.6725 30.6161 84.7925 29.8481C83.9285 29.0641 83.4965 27.7761 83.4965 25.9841V21.0641H81.6965V17.6081H83.4965V14.3201H87.6005V17.6081H90.2885V21.0641H87.6005V26.0561C87.6005 26.5841 87.7045 26.9521 87.9125 27.1601C88.1365 27.3681 88.5045 27.4721 89.0165 27.4721H90.3125Z" fill="#323232"/>
<path d="M104.811 26.2241C104.811 27.1201 104.579 27.9441 104.115 28.6961C103.667 29.4481 102.995 30.0481 102.099 30.4961C101.219 30.9441 100.147 31.1681 98.8831 31.1681C96.9791 31.1681 95.4111 30.7041 94.1791 29.7761C92.9471 28.8481 92.2751 27.5521 92.1631 25.8881H96.5311C96.5951 26.5281 96.8191 27.0321 97.2031 27.4001C97.6031 27.7681 98.1071 27.9521 98.7151 27.9521C99.2431 27.9521 99.6591 27.8081 99.9631 27.5201C100.267 27.2321 100.419 26.8481 100.419 26.3681C100.419 25.9361 100.275 25.5761 99.9871 25.2881C99.7151 25.0001 99.3711 24.7681 98.9551 24.5921C98.5391 24.4001 97.9631 24.1761 97.2271 23.9201C96.1551 23.5521 95.2751 23.2001 94.5871 22.8641C93.9151 22.5121 93.3311 22.0001 92.8351 21.3281C92.3551 20.6401 92.1151 19.7521 92.1151 18.6641C92.1151 17.6561 92.3711 16.7841 92.8831 16.0481C93.3951 15.3121 94.0991 14.7521 94.9951 14.3681C95.9071 13.9681 96.9471 13.7681 98.1151 13.7681C100.003 13.7681 101.499 14.2161 102.603 15.1121C103.723 16.0081 104.355 17.2401 104.499 18.8081H100.059C99.9791 18.2481 99.7711 17.8081 99.4351 17.4881C99.1151 17.1521 98.6751 16.9841 98.1151 16.9841C97.6351 16.9841 97.2431 17.1121 96.9391 17.3681C96.6511 17.6241 96.5071 18.0001 96.5071 18.4961C96.5071 18.8961 96.6351 19.2401 96.8911 19.5281C97.1631 19.8001 97.4991 20.0241 97.8991 20.2001C98.2991 20.3761 98.8751 20.6001 99.6271 20.8721C100.715 21.2401 101.603 21.6081 102.291 21.9761C102.979 22.3281 103.571 22.8481 104.067 23.5361C104.563 24.2241 104.811 25.1201 104.811 26.2241Z" fill="#323232"/>
<path d="M115.432 17.4401C116.536 17.4401 117.52 17.7201 118.384 18.2801C119.264 18.8241 119.952 19.6161 120.448 20.6561C120.96 21.6801 121.216 22.8961 121.216 24.3041C121.216 25.6961 120.96 26.9121 120.448 27.9521C119.952 28.9921 119.264 29.7921 118.384 30.3521C117.52 30.8961 116.536 31.1681 115.432 31.1681C114.408 31.1681 113.528 30.9361 112.792 30.4721C112.056 30.0081 111.52 29.3761 111.184 28.5761V37.3841H107.08V17.6081H111.184V20.0321C111.52 19.2321 112.056 18.6001 112.792 18.1361C113.528 17.6721 114.408 17.4401 115.432 17.4401ZM114.112 21.0401C113.248 21.0401 112.536 21.3361 111.976 21.9281C111.432 22.5041 111.16 23.2961 111.16 24.3041C111.16 25.2961 111.432 26.0881 111.976 26.6801C112.536 27.2721 113.248 27.5681 114.112 27.5681C114.992 27.5681 115.696 27.2801 116.224 26.7041C116.768 26.1281 117.04 25.3281 117.04 24.3041C117.04 23.2801 116.768 22.4801 116.224 21.9041C115.696 21.3281 114.992 21.0401 114.112 21.0401Z" fill="#323232"/>
<path d="M128.434 17.4401C129.458 17.4401 130.338 17.6721 131.074 18.1361C131.81 18.6001 132.354 19.2321 132.706 20.0321V17.6081H136.786V31.0001H132.706V28.5761C132.354 29.3761 131.81 30.0081 131.074 30.4721C130.338 30.9361 129.458 31.1681 128.434 31.1681C127.33 31.1681 126.338 30.8961 125.458 30.3521C124.594 29.7921 123.906 28.9921 123.394 27.9521C122.898 26.9121 122.65 25.6961 122.65 24.3041C122.65 22.8961 122.898 21.6801 123.394 20.6561C123.906 19.6161 124.594 18.8241 125.458 18.2801C126.338 17.7201 127.33 17.4401 128.434 17.4401ZM129.754 21.0401C128.874 21.0401 128.162 21.3281 127.618 21.9041C127.09 22.4801 126.826 23.2801 126.826 24.3041C126.826 25.3281 127.09 26.1281 127.618 26.7041C128.162 27.2801 128.874 27.5681 129.754 27.5681C130.618 27.5681 131.322 27.2721 131.866 26.6801C132.426 26.0881 132.706 25.2961 132.706 24.3041C132.706 23.2961 132.426 22.5041 131.866 21.9281C131.322 21.3361 130.618 21.0401 129.754 21.0401Z" fill="#323232"/>
<path d="M145.659 17.4401C147.387 17.4401 148.835 17.9201 150.003 18.8801C151.171 19.8241 151.907 21.1281 152.211 22.7921H147.867C147.739 22.2161 147.475 21.7681 147.075 21.4481C146.675 21.1281 146.171 20.9681 145.563 20.9681C144.843 20.9681 144.251 21.2561 143.787 21.8321C143.323 22.3921 143.091 23.2161 143.091 24.3041C143.091 25.3921 143.323 26.2241 143.787 26.8001C144.251 27.3601 144.843 27.6401 145.563 27.6401C146.171 27.6401 146.675 27.4801 147.075 27.1601C147.475 26.8401 147.739 26.3921 147.867 25.8161H152.211C151.907 27.4801 151.171 28.7921 150.003 29.7521C148.835 30.6961 147.387 31.1681 145.659 31.1681C144.347 31.1681 143.179 30.8961 142.155 30.3521C141.147 29.7921 140.355 28.9921 139.779 27.9521C139.203 26.9121 138.915 25.6961 138.915 24.3041C138.915 22.8961 139.195 21.6801 139.755 20.6561C140.331 19.6161 141.131 18.8241 142.155 18.2801C143.179 17.7201 144.347 17.4401 145.659 17.4401Z" fill="#323232"/>
<path d="M167.073 23.9441C167.073 24.2801 167.033 24.6481 166.953 25.0481H157.665C157.713 26.0561 157.969 26.7841 158.433 27.2321C158.897 27.6641 159.489 27.8801 160.209 27.8801C160.817 27.8801 161.321 27.7281 161.721 27.4241C162.121 27.1201 162.385 26.7281 162.513 26.2481H166.857C166.681 27.1921 166.297 28.0401 165.705 28.7921C165.113 29.5281 164.361 30.1121 163.449 30.5441C162.537 30.9601 161.521 31.1681 160.401 31.1681C159.089 31.1681 157.921 30.8961 156.897 30.3521C155.889 29.7921 155.097 28.9921 154.521 27.9521C153.945 26.9121 153.657 25.6961 153.657 24.3041C153.657 22.8961 153.937 21.6801 154.497 20.6561C155.073 19.6161 155.873 18.8241 156.897 18.2801C157.921 17.7201 159.089 17.4401 160.401 17.4401C161.729 17.4401 162.897 17.7121 163.905 18.2561C164.913 18.8001 165.689 19.5681 166.233 20.5601C166.793 21.5361 167.073 22.6641 167.073 23.9441ZM162.921 23.3201C162.937 22.4401 162.697 21.7841 162.201 21.3521C161.721 20.9041 161.121 20.6801 160.401 20.6801C159.649 20.6801 159.025 20.9041 158.529 21.3521C158.033 21.8001 157.753 22.4561 157.689 23.3201H162.921Z" fill="#323232"/>
<path fill-rule="evenodd" clip-rule="evenodd" d="M22 22.0001L32.5987 11.3855C26.7788 5.57428 17.209 5.57784 11.3934 11.3935C5.57477 17.2121 5.57477 26.788 11.3934 32.6067C17.212 38.4253 26.788 38.4253 32.6066 32.6067L22 22.0001Z" fill="#58BEBF"/>
</svg>
